<?xml version="1.0" encoding="UTF-8"?>
<svg width="16px" height="16px" viewBox="0 0 16 16" version="1.1" xmlns="http://www.w3.org/2000/svg" xmlns:xlink="http://www.w3.org/1999/xlink">
    <!-- Generator: Sketch 49 (51002) - http://www.bohemiancoding.com/sketch -->
    <title>Images</title>
    <desc>Created with Sketch.</desc>
    <defs></defs>
    <g id="Page-1" stroke="none" stroke-width="1" fill="none" fill-rule="evenodd">
        <g id="Post" transform="translate(-370.000000, -582.000000)" fill="#888888">
            <g id="Content" transform="translate(370.000000, 105.000000)">
                <g id="Main">
                    <g id="Images-+-Meta">
                        <g id="Meta" transform="translate(0.000000, 468.000000)">
                            <g id="Stats" transform="translate(0.000000, 8.000000)">
                                <g id="Images">
                                    <g transform="translate(0.000000, 1.000000)" id="Shape">
                                        <path d="M4.70588235,6.11576471 C4.70588235,6.11576471 4.07341176,4.70494118 3.29411765,4.70494118 C2.51388235,4.70494118 1.88235294,5.33647059 1.88235294,6.11576471 C1.88235294,6.896 2.51388235,7.52752941 3.29411765,7.52752941 C4.07341176,7.52752941 4.70588235,6.11576471 4.70588235,6.11576471 Z M3.25552941,5.66682353 C3.51435294,5.66682353 3.72611765,5.87764706 3.72611765,6.13741176 C3.72611765,6.39717647 3.51435294,6.608 3.25552941,6.608 C2.99482353,6.608 2.78494118,6.39717647 2.78494118,6.13741176 C2.78494118,5.87764706 2.99482353,5.66682353 3.25552941,5.66682353 L3.25552941,5.66682353 Z"></path>
                                        <path d="M10.4470588,7.66494118 L7.90776471,11.4927059 L5.08235294,9.07670588 C4.97882353,8.97223529 4.84235294,8.93552941 4.70588235,8.944 C4.56941176,8.93552941 4.43294118,8.97223529 4.32941176,9.07670588 L2.01788235,12.7990588 C1.82588235,12.9910588 1.82588235,13.3025882 2.01788235,13.4945882 C2.20988235,13.6865882 2.52141176,13.6865882 2.71341176,13.4945882 L4.80376471,10.128 L7.63952941,12.5524706 C7.73835294,12.6522353 7.86917647,12.6945882 8,12.6908235 C8.13082353,12.6945882 8.26164706,12.6522353 8.36141176,12.5524706 L11.1425882,8.35952941 C11.3355294,8.16752941 11.3355294,7.85694118 11.1425882,7.66494118 C10.9505882,7.472 10.64,7.472 10.4470588,7.66494118 L10.4470588,7.66494118 Z"></path>
                                        <path d="M14.5882353,0.940235294 L2.35294118,0.940235294 C2.09317647,0.940235294 1.88235294,1.15105882 1.88235294,1.41082353 C1.88235294,1.66964706 2.09317647,1.88141176 2.35294118,1.88141176 L14.1176471,1.88141176 L14.1176471,13.6461176 C14.1176471,13.9049412 14.3294118,14.1167059 14.5882353,14.1167059 C14.8470588,14.1167059 15.0588235,13.9049412 15.0588235,13.6461176 L15.0588235,1.41082353 C15.0588235,1.15105882 14.8470588,0.940235294 14.5882353,0.940235294 L14.5882353,0.940235294 Z"></path>
                                        <path d="M12.2352941,2.82258824 L0.941176471,2.82258824 C0.421647059,2.82258824 0,3.24329412 0,3.76282353 L0,15.0569412 C0,15.5774118 0.421647059,15.9981176 0.941176471,15.9981176 L12.2352941,15.9981176 C12.7557647,15.9981176 13.1764706,15.5774118 13.1764706,15.0569412 L13.1764706,3.76282353 C13.1764706,3.24329412 12.7557647,2.82258824 12.2352941,2.82258824 L12.2352941,2.82258824 Z M12.2352941,14.5872941 C12.2352941,14.8461176 12.0235294,15.0569412 11.7647059,15.0569412 L1.41176471,15.0569412 C1.152,15.0569412 0.941176471,14.8461176 0.941176471,14.5872941 L0.941176471,4.23435294 C0.941176471,3.97458824 1.152,3.76282353 1.41176471,3.76282353 L11.7647059,3.76282353 C12.0235294,3.76282353 12.2352941,3.97458824 12.2352941,4.23435294 L12.2352941,14.5872941 L12.2352941,14.5872941 Z"></path>
                                    </g>
                                </g>
                            </g>
                        </g>
                    </g>
                </g>
            </g>
        </g>
    </g>
</svg>