<?xml version="1.0" encoding="UTF-8"?>
<svg width="16px" height="14px" viewBox="0 0 16 14" version="1.1" xmlns="http://www.w3.org/2000/svg" xmlns:xlink="http://www.w3.org/1999/xlink">
    <!-- Generator: Sketch 49 (51002) - http://www.bohemiancoding.com/sketch -->
    <title>Fill 183</title>
    <desc>Created with Sketch.</desc>
    <defs></defs>
    <g id="Page-1" stroke="none" stroke-width="1" fill="none" fill-rule="evenodd">
        <g id="Post" transform="translate(-481.000000, -584.000000)" fill="#888888">
            <g id="Content" transform="translate(370.000000, 105.000000)">
                <g id="Main">
                    <g id="Images-+-Meta">
                        <g id="Meta" transform="translate(0.000000, 468.000000)">
                            <g id="Stats" transform="translate(0.000000, 8.000000)">
                                <g id="Likes" transform="translate(111.000000, 0.000000)">
                                    <path d="M8,15.6451831 C8,15.6451831 1,9.4130256 1,7.22251254 C1,4.8969694 1.8425,3.90343704 4.5,3.90343704 C5.2875,3.90343704 8,6.16146514 8,6.16146514 C8,6.16146514 10.7125,3.90343704 11.5,3.90343704 C14.1575,3.90343704 15,4.8969694 15,7.22251254 C15,9.4130256 8,15.6451831 8,15.6451831 L8,15.6451831 Z M11.5,3 C10,3 8,5.2582539 8,5.2582539 C8,5.2582539 6,3 4.5,3 C1.4625,3 0,4.33246238 0,7.08703085 C0,9.68376317 8,17 8,17 C8,17 16,9.68376317 16,7.08703085 C16,4.33246238 14.5375,3 11.5,3 L11.5,3 Z" id="Fill-183"></path>
                                </g>
                            </g>
                        </g>
                    </g>
                </g>
            </g>
        </g>
    </g>
</svg>
